<svg width="133" height="133" viewBox="0 0 133 133" fill="none" xmlns="http://www.w3.org/2000/svg">
<g id="EUCLID SMILEY">
<path d="M0.394531 66.2432C0.394531 29.7023 30.0168 0.0800781 66.5576 0.0800781C103.098 0.0800781 132.721 29.7023 132.721 66.2432C132.721 102.784 103.098 132.406 66.5576 132.406C30.0168 132.406 0.394531 102.784 0.394531 66.2432Z" fill="#3958F2"/>
<path d="M33.3589 81.5205C31.5531 76.8824 30.6237 71.9113 30.6237 66.891H41.3403C41.3403 70.408 41.9927 73.8905 43.2601 77.1397C44.5276 80.389 46.3854 83.3414 48.7274 85.8283C51.0694 88.3152 53.8497 90.2879 56.9097 91.6338C59.9696 92.9797 63.2493 93.6724 66.5613 93.6724C69.8734 93.6724 73.1531 92.9797 76.213 91.6338C79.273 90.2879 82.0533 88.3152 84.3953 85.8283C86.7373 83.3414 88.5951 80.389 89.8626 77.1397C91.13 73.8905 91.7824 70.408 91.7824 66.891L102.488 66.891C102.488 71.9112 101.558 76.8824 99.7524 81.5205C97.9467 86.1586 95.2999 90.3729 91.9634 93.9228C88.6268 97.4726 84.6657 100.289 80.3062 102.21C75.9467 104.131 71.2743 105.12 66.5557 105.12C61.837 105.12 57.1646 104.131 52.8051 102.21C48.4456 100.289 44.4845 97.4726 41.1479 93.9228C37.8113 90.3729 35.1646 86.1586 33.3589 81.5205Z" fill="#F3B71D"/>
<path d="M91.7819 40.673H102.487V51.3778H91.7819V40.673Z" fill="#F3B71D"/>
<path d="M30.6349 40.6727H41.3405V51.3776H30.6349V40.6727Z" fill="#F3B71D"/>
</g>
</svg>
