<svg width="65" height="65" viewBox="0 0 65 65" fill="none" xmlns="http://www.w3.org/2000/svg">
<g id="EUCLID SMILEY">
<path d="M9.52297 9.51609C22.0197 -2.98068 42.281 -2.98068 54.7778 9.51609C67.2746 22.0129 67.2746 42.2741 54.7778 54.7709C42.281 67.2677 22.0197 67.2677 9.52297 54.7709C-2.9738 42.2741 -2.9738 22.0129 9.52297 9.51609Z" fill="#F7711F"/>
<path d="M15.5718 26.0145C16.5405 23.8107 17.9227 21.7928 19.6396 20.0759L23.3046 23.7409C22.1019 24.9437 21.134 26.3578 20.4562 27.9024C19.7784 29.4472 19.4041 31.0922 19.3545 32.7437C19.305 34.3951 19.5812 36.0206 20.1674 37.5274C20.7536 39.0342 21.6383 40.3927 22.771 41.5254C23.9037 42.6582 25.2622 43.5429 26.769 44.1291C28.2758 44.7153 29.9013 44.9915 31.5528 44.9419C33.2042 44.8924 34.8493 44.518 36.394 43.8402C37.9387 43.1625 39.3528 42.1946 40.5556 40.9918L44.2167 44.6529C42.4998 46.3698 40.4818 47.7521 38.2781 48.7207C36.0743 49.6894 33.7279 50.2255 31.3727 50.2984C29.0176 50.3713 26.6999 49.9797 24.552 49.1458C22.404 48.3119 20.4679 47.0521 18.8542 45.4384C17.2404 43.8246 15.9806 41.8885 15.1467 39.7406C14.3129 37.5926 13.9212 35.2749 13.9941 32.9198C14.0671 30.5647 14.6032 28.2182 15.5718 26.0145Z" fill="#C03D0E"/>
<path d="M49.5218 32.0252L53.1831 35.6864L49.5221 39.3474L45.8608 35.6862L49.5218 32.0252Z" fill="#C03D0E"/>
<path d="M28.61 11.1132L32.2712 14.7744L28.6102 18.4354L24.949 14.7742L28.61 11.1132Z" fill="#C03D0E"/>
</g>
</svg>
