<svg width="33" height="33" viewBox="0 0 33 33" fill="none" xmlns="http://www.w3.org/2000/svg">
<g id="learning 1">
<path id="Vector" d="M9.46736 29.5456L9.46741 25.7362C9.0685 21.7664 4.37646 19.6412 4.37646 13.5461C4.37645 7.45109 8.01296 2.80389 15.2857 2.87982C20.5223 2.93449 25.4674 5.92733 25.4674 12.0224L28.3765 16.5936C28.3765 19.6412 25.4674 19.6412 25.4674 19.6412C25.4674 19.6412 26.1946 27.26 19.6491 27.26V29.5456" stroke="#383A42" stroke-width="1.5" stroke-linecap="round" stroke-linejoin="round"/>
<path id="Vector_2" d="M15.0431 16.2122C16.5159 16.2122 17.7098 15.0184 17.7098 13.5456C17.7098 12.0728 16.5159 10.8789 15.0431 10.8789C14.5574 10.8789 14.1021 11.0088 13.7098 11.2357C12.9127 11.6967 12.3765 12.5585 12.3765 13.5456C12.3765 14.5326 12.9127 15.3944 13.7098 15.8554C14.1021 16.0824 14.5574 16.2122 15.0431 16.2122Z" stroke="#383A42" stroke-width="1.5" stroke-linecap="round" stroke-linejoin="round"/>
<path id="Vector_3" d="M15.0444 17.543C17.2536 17.543 19.0444 15.7522 19.0444 13.543C19.0444 11.3338 17.2536 9.54297 15.0444 9.54297C12.8353 9.54297 11.0444 11.3338 11.0444 13.543C11.0444 15.7522 12.8353 17.543 15.0444 17.543Z" stroke="#383A42" stroke-width="1.5" stroke-linecap="round" stroke-linejoin="round" stroke-dasharray="0.3 2"/>
</g>
</svg>
