<svg width="16" height="15" viewBox="0 0 16 15" fill="none" xmlns="http://www.w3.org/2000/svg">
<g clip-path="url(#clip0_1_299)">
<path fill-rule="evenodd" clip-rule="evenodd" d="M7.7709 0.781555C4.13067 0.781555 1.17969 3.73254 1.17969 7.37276C1.17969 11.013 4.13067 13.964 7.7709 13.964C11.4111 13.964 14.3621 11.013 14.3621 7.37276C14.3621 3.73254 11.4111 0.781555 7.7709 0.781555ZM5.03045 7.35419C4.85087 7.1746 4.55971 7.1746 4.38012 7.35419C4.20054 7.53377 4.20054 7.82489 4.38012 8.00448L6.21953 9.84388C6.39912 10.0235 6.69031 10.0235 6.86983 9.84388L11.1618 5.55195C11.3414 5.37237 11.3414 5.08121 11.1618 4.90162C10.9822 4.72204 10.6911 4.72204 10.5115 4.90162L6.54469 8.86839L5.03045 7.35419Z" fill="#332B00"/>
</g>
<defs>
<clipPath id="clip0_1_299">
<rect width="14.7153" height="14.7153" fill="white" transform="translate(0.414062 0.0159302)"/>
</clipPath>
</defs>
</svg>
