<svg width="65" height="65" viewBox="0 0 65 65" fill="none" xmlns="http://www.w3.org/2000/svg">
<g id="EUCLID SMILEY">
<path d="M1.1953 40.976C-3.37884 23.9051 6.7518 6.35833 23.8227 1.7842C40.8936 -2.78994 58.4404 7.3407 63.0145 24.4116C67.5887 41.4825 57.458 59.0293 40.3871 63.6034C23.3162 68.1776 5.76943 58.0469 1.1953 40.976Z" fill="#F3B71D"/>
<path d="M18.5077 43.9868C17.0836 42.046 16.0271 39.84 15.3987 37.4946L20.4051 36.1532C20.8454 37.7962 21.5861 39.3414 22.585 40.7007C23.5838 42.0601 24.8213 43.2068 26.2267 44.0754C27.6322 44.9441 29.178 45.5176 30.776 45.7634C32.374 46.0091 33.9929 45.9222 35.5402 45.5076C37.0875 45.093 38.533 44.3588 39.794 43.347C41.0551 42.3352 42.1071 41.0655 42.8899 39.6106C43.6727 38.1556 44.171 36.5438 44.3564 34.8671C44.5418 33.1905 44.4106 31.4819 43.9704 29.8389L48.9715 28.4988C49.6 30.8441 49.788 33.2828 49.525 35.6757C49.262 38.0685 48.5531 40.3687 47.4387 42.4447C46.3243 44.5208 44.8263 46.3322 43.0301 47.7754C41.234 49.2186 39.1749 50.2655 36.9705 50.8561C34.7661 51.4468 32.4595 51.5698 30.1824 51.2179C27.9052 50.8661 25.7022 50.0465 23.6991 48.8057C21.696 47.565 19.9319 45.9275 18.5077 43.9868Z" fill="#C4790A"/>
<path d="M40.6882 17.5906L45.6895 16.2505L47.0296 21.2515L42.0282 22.5916L40.6882 17.5906Z" fill="#C4790A"/>
<path d="M12.1219 25.2448L17.1233 23.9047L18.4633 28.9057L13.4619 30.2458L12.1219 25.2448Z" fill="#C4790A"/>
</g>
</svg>
