<svg width="306" height="148" viewBox="0 0 306 148" fill="none" xmlns="http://www.w3.org/2000/svg">
<path d="M13.2726 83.837C6.19731 57.4318 21.8674 30.2905 48.2726 23.2152C74.6778 16.14 101.819 31.81 108.894 58.2153C115.97 84.6205 100.3 111.762 73.8944 118.837C47.4892 125.912 20.3478 110.242 13.2726 83.837Z" fill="#F3B71D"/>
<path d="M40.0514 88.494C37.8485 85.4921 36.2143 82.0798 35.2423 78.452L42.9863 76.377C43.6673 78.9184 44.813 81.3087 46.358 83.4112C47.9031 85.5138 49.8172 87.2876 51.9911 88.6312C54.165 89.9748 56.5562 90.862 59.028 91.2421C61.4998 91.6222 64.0038 91.4877 66.3972 90.8464C68.7906 90.2051 71.0264 89.0695 72.977 87.5044C74.9276 85.9394 76.5548 83.9755 77.7656 81.7249C78.9765 79.4744 79.7473 76.9812 80.034 74.3878C80.3208 71.7944 80.1179 69.1515 79.4369 66.6101L87.1727 64.5373C88.1448 68.1651 88.4357 71.9373 88.0289 75.6385C87.6221 79.3397 86.5255 82.8976 84.8017 86.1088C83.078 89.3201 80.7608 92.1219 77.9826 94.3543C75.2043 96.5867 72.0194 98.2059 68.6096 99.1196C65.1998 100.033 61.6319 100.223 58.1097 99.6792C54.5874 99.135 51.1798 97.8672 48.0814 95.948C44.9829 94.0289 42.2544 91.496 40.0514 88.494Z" fill="#C4790A"/>
<path d="M74.36 47.6645L82.0961 45.5916L84.1689 53.3271L76.4328 55.4L74.36 47.6645Z" fill="#C4790A"/>
<path d="M30.1738 59.504L37.9099 57.4311L39.9826 65.1666L32.2466 67.2395L30.1738 59.504Z" fill="#C4790A"/>
<path d="M197.09 58.2145C204.165 31.8093 231.307 16.1392 257.712 23.2145C284.117 30.2897 299.787 57.4311 292.712 83.8363C285.637 110.242 258.495 125.912 232.09 118.836C205.685 111.761 190.015 84.6197 197.09 58.2145Z" fill="#F7711F"/>
<path d="M217.953 75.637C217.546 71.9357 217.837 68.1635 218.809 64.5358L226.553 66.6108C225.872 69.1522 225.669 71.7951 225.956 74.3885C226.243 76.9819 227.013 79.4751 228.224 81.7256C229.435 83.9762 231.062 85.9401 233.013 87.5051C234.964 89.0702 237.199 90.2058 239.593 90.8471C241.986 91.4884 244.49 91.6229 246.962 91.2428C249.434 90.8627 251.825 89.9755 253.999 88.6319C256.173 87.2883 258.087 85.5145 259.632 83.4119C261.177 81.3094 262.323 78.9191 263.004 76.3777L270.739 78.4505C269.767 82.0782 268.133 85.4905 265.93 88.4925C263.727 91.4945 260.999 94.0273 257.9 95.9465C254.802 97.8656 251.394 99.1335 247.872 99.6777C244.35 100.222 240.782 100.032 237.372 99.118C233.962 98.2044 230.777 96.5851 227.999 94.3528C225.221 92.1204 222.904 89.3186 221.18 86.1073C219.456 82.896 218.36 79.3382 217.953 75.637Z" fill="#D12712"/>
<path d="M268.08 57.4319L275.816 59.5047L273.743 67.2403L266.007 65.1674L268.08 57.4319Z" fill="#D12712"/>
<path d="M223.894 45.592L231.63 47.6649L229.557 55.4005L221.821 53.3276L223.894 45.592Z" fill="#D12712"/>
<g filter="url(#filter0_dddd_1_762)">
<path d="M89.6301 64.7681C89.6301 29.7743 117.998 1.40625 152.992 1.40625C187.986 1.40625 216.354 29.7743 216.354 64.7681C216.354 99.7619 187.986 128.13 152.992 128.13C117.998 128.13 89.6301 99.7619 89.6301 64.7681Z" fill="#3958F2"/>
<path d="M121.199 79.3987C119.469 74.9569 118.579 70.1963 118.579 65.3885H128.842C128.842 68.7566 129.467 72.0917 130.681 75.2033C131.895 78.3151 133.674 81.1424 135.917 83.5241C138.159 85.9057 140.822 87.7949 143.752 89.0838C146.683 90.3727 149.824 91.0361 152.996 91.0361C156.167 91.0361 159.308 90.3727 162.239 89.0838C165.169 87.7949 167.832 85.9057 170.074 83.5241C172.317 81.1424 174.096 78.3151 175.31 75.2033C176.524 72.0917 177.149 68.7566 177.149 65.3885L187.401 65.3885C187.401 70.1963 186.511 74.9569 184.781 79.3986C183.052 83.8404 180.517 87.8763 177.322 91.2758C174.127 94.6754 170.333 97.3721 166.158 99.2119C161.984 101.052 157.509 101.999 152.99 101.999C148.471 101.999 143.997 101.052 139.822 99.2119C135.647 97.3721 131.853 94.6754 128.658 91.2758C125.463 87.8763 122.928 83.8404 121.199 79.3987Z" fill="#F3B71D"/>
<path d="M177.148 40.2805H187.401V50.5321H177.148V40.2805Z" fill="#F3B71D"/>
<path d="M118.59 40.2803H128.842V50.5319H118.59V40.2803Z" fill="#F3B71D"/>
</g>
<defs>
<filter id="filter0_dddd_1_762" x="83.8759" y="0.255426" width="138.232" height="147.439" filterUnits="userSpaceOnUse" color-interpolation-filters="sRGB">
<feFlood flood-opacity="0" result="BackgroundImageFix"/>
<feColorMatrix in="SourceAlpha" type="matrix" values="0 0 0 0 0 0 0 0 0 0 0 0 0 0 0 0 0 0 127 0" result="hardAlpha"/>
<feOffset dy="1.15082"/>
<feGaussianBlur stdDeviation="1.15082"/>
<feColorMatrix type="matrix" values="0 0 0 0 0 0 0 0 0 0 0 0 0 0 0 0 0 0 0.14 0"/>
<feBlend mode="normal" in2="BackgroundImageFix" result="effect1_dropShadow_1_762"/>
<feColorMatrix in="SourceAlpha" type="matrix" values="0 0 0 0 0 0 0 0 0 0 0 0 0 0 0 0 0 0 127 0" result="hardAlpha"/>
<feOffset dy="3.45247"/>
<feGaussianBlur stdDeviation="1.72624"/>
<feColorMatrix type="matrix" values="0 0 0 0 0 0 0 0 0 0 0 0 0 0 0 0 0 0 0.12 0"/>
<feBlend mode="normal" in2="effect1_dropShadow_1_762" result="effect2_dropShadow_1_762"/>
<feColorMatrix in="SourceAlpha" type="matrix" values="0 0 0 0 0 0 0 0 0 0 0 0 0 0 0 0 0 0 127 0" result="hardAlpha"/>
<feOffset dy="8.05577"/>
<feGaussianBlur stdDeviation="2.30165"/>
<feColorMatrix type="matrix" values="0 0 0 0 0 0 0 0 0 0 0 0 0 0 0 0 0 0 0.07 0"/>
<feBlend mode="normal" in2="effect2_dropShadow_1_762" result="effect3_dropShadow_1_762"/>
<feColorMatrix in="SourceAlpha" type="matrix" values="0 0 0 0 0 0 0 0 0 0 0 0 0 0 0 0 0 0 127 0" result="hardAlpha"/>
<feOffset dy="13.8099"/>
<feGaussianBlur stdDeviation="2.87706"/>
<feColorMatrix type="matrix" values="0 0 0 0 0 0 0 0 0 0 0 0 0 0 0 0 0 0 0.02 0"/>
<feBlend mode="normal" in2="effect3_dropShadow_1_762" result="effect4_dropShadow_1_762"/>
<feBlend mode="normal" in="SourceGraphic" in2="effect4_dropShadow_1_762" result="shape"/>
</filter>
</defs>
</svg>
