<svg width="65" height="65" viewBox="0 0 65 65" fill="none" xmlns="http://www.w3.org/2000/svg">
<g id="EUCLID SMILEY">
<path d="M0.0302734 32.6836C0.0302734 15.0105 14.3572 0.683594 32.0303 0.683594C49.7034 0.683594 64.0303 15.0105 64.0303 32.6836C64.0303 50.3567 49.7034 64.6836 32.0303 64.6836C14.3572 64.6836 0.0302734 50.3567 0.0302734 32.6836Z" fill="#3958F2"/>
<path d="M15.9736 40.0725C15.1002 37.8293 14.6507 35.425 14.6507 32.9969H19.8338C19.8338 34.6979 20.1493 36.3822 20.7624 37.9537C21.3754 39.5253 22.2739 40.9532 23.4066 42.156C24.5393 43.3588 25.884 44.3129 27.364 44.9639C28.844 45.6148 30.4302 45.9499 32.0321 45.9499C33.634 45.9499 35.2202 45.6148 36.7001 44.9639C38.1801 44.3129 39.5248 43.3588 40.6575 42.156C41.7903 40.9532 42.6888 39.5253 43.3018 37.9537C43.9148 36.3822 44.2303 34.6979 44.2303 32.9969L49.4079 32.9969C49.4079 35.425 48.9584 37.8293 48.0851 40.0725C47.2117 42.3158 45.9316 44.354 44.3178 46.0709C42.7041 47.7878 40.7883 49.1497 38.6798 50.0789C36.5714 51.0081 34.3115 51.4864 32.0293 51.4864C29.7471 51.4864 27.4873 51.0081 25.3788 50.0789C23.2704 49.1497 21.3545 47.7878 19.7408 46.0709C18.127 44.354 16.8469 42.3158 15.9736 40.0725Z" fill="#212AD4"/>
<path d="M44.2301 20.3165H49.4079V25.4939H44.2301V20.3165Z" fill="#212AD4"/>
<path d="M14.6561 20.3164H19.8339V25.4938H14.6561V20.3164Z" fill="#212AD4"/>
</g>
</svg>
