<svg width="239" height="185" viewBox="0 0 239 185" fill="none" xmlns="http://www.w3.org/2000/svg">
<path d="M208.871 35.8064H155.161V29.8387C155.161 13.3856 141.776 0 125.323 0H29.8387C13.3856 0 0 13.3856 0 29.8387V95.4839C0 111.937 13.3856 125.323 29.8387 125.323H47.7419V143.226C47.7419 145.64 49.1951 147.815 51.427 148.74C52.164 149.044 52.9398 149.194 53.7097 149.194C55.2643 149.194 56.789 148.588 57.9319 147.445L80.0543 125.323H83.5484V131.29C83.5484 147.743 96.934 161.129 113.387 161.129H158.655L180.781 183.251C181.921 184.394 183.448 185 185 185C185.767 185 186.546 184.851 187.283 184.546C189.515 183.621 190.968 181.446 190.968 179.032V161.129H208.871C225.324 161.129 238.71 147.743 238.71 131.29V65.6452C238.71 49.1921 225.324 35.8064 208.871 35.8064ZM65.6452 47.7419C65.6452 51.0361 62.9716 53.7097 59.6774 53.7097C56.3832 53.7097 53.7097 51.0361 53.7097 47.7419C53.7097 34.5801 64.4188 23.871 77.5806 23.871C90.7425 23.871 101.452 34.5801 101.452 47.7419C101.452 58.8449 93.8338 68.1994 83.5484 70.858V77.5806C83.5484 80.8748 80.8748 83.5484 77.5806 83.5484C74.2865 83.5484 71.6129 80.8748 71.6129 77.5806V65.6452C71.6129 62.351 74.2865 59.6774 77.5806 59.6774C84.1631 59.6774 89.5161 54.3244 89.5161 47.7419C89.5161 41.1595 84.1631 35.8064 77.5806 35.8064C70.9982 35.8064 65.6452 41.1595 65.6452 47.7419ZM77.5806 101.452C74.2835 101.452 71.6129 98.7811 71.6129 95.4839C71.6129 92.1867 74.2835 89.5161 77.5806 89.5161C80.8778 89.5161 83.5484 92.1867 83.5484 95.4839C83.5484 98.7811 80.8778 101.452 77.5806 101.452ZM226.774 131.29C226.774 141.164 218.745 149.194 208.871 149.194H185C181.706 149.194 179.032 151.867 179.032 155.161V164.623L165.348 150.942C164.229 149.823 162.71 149.194 161.129 149.194H113.387C103.513 149.194 95.4839 141.164 95.4839 131.29V125.323H125.323C141.776 125.323 155.161 111.937 155.161 95.4839V47.7419H208.871C218.745 47.7419 226.774 55.7715 226.774 65.6452V131.29Z" fill="#3958F2"/>
</svg>
