<svg width="56" height="56" viewBox="0 0 56 56" fill="none" xmlns="http://www.w3.org/2000/svg">
<g id="Featured icon">
<rect x="4" y="4" width="48" height="48" rx="24" fill="#DCE3FD"/>
<rect x="4" y="4" width="48" height="48" rx="24" stroke="#EFF3FF" stroke-width="8"/>
<g id="Group 78">
<path id="Vector" d="M20 36.5708V19.9996C20 18.7372 21.0233 17.7139 22.2857 17.7139H35.3141C35.6929 17.7139 35.9998 18.0209 35.9998 18.3996V38.2851" stroke="#3958F2" stroke-linecap="round"/>
<path id="Vector_2" d="M24.5712 22.2852H31.4283" stroke="#3958F2" stroke-linecap="round"/>
<path id="Vector_3" d="M21.7144 31.4277H36" stroke="#3958F2" stroke-linecap="round"/>
<path id="Vector_4" d="M21.7144 34.8564H36" stroke="#3958F2" stroke-linecap="round"/>
<path id="Vector_5" d="M21.7144 38.2852H36" stroke="#3958F2" stroke-linecap="round"/>
<path id="Vector_6" d="M21.7143 34.8563C20.5714 34.8563 20 34.0887 20 33.142C20 32.1953 20.5714 31.4277 21.7143 31.4277" stroke="#3958F2" stroke-linecap="round" stroke-linejoin="round"/>
<path id="Vector_7" d="M21.7143 38.285C20.5714 38.285 20 37.5174 20 36.5707C20 35.624 20.5714 34.8564 21.7143 34.8564" stroke="#3958F2" stroke-linecap="round" stroke-linejoin="round"/>
</g>
</g>
</svg>
