<svg width="57" height="57" viewBox="0 0 57 57" fill="none" xmlns="http://www.w3.org/2000/svg">
<g id="code-brackets">
<path id="Vector" d="M21.0581 49.2187H18.7248C16.1475 49.2187 14.0581 47.132 14.0581 44.5546C14.0581 40.9357 14.0581 36.0221 14.0581 32.8854C14.0581 30.5521 10.5581 28.2187 10.5581 28.2187C10.5581 28.2187 14.0581 25.8854 14.0581 23.5521C14.0581 20.8151 14.0581 15.6702 14.0581 11.8834C14.0581 9.30608 16.1475 7.21875 18.7248 7.21875H21.0581" stroke="white" stroke-width="1.5" stroke-linecap="round" stroke-linejoin="round"/>
<path id="Vector_2" d="M35.0581 49.2187H37.3914C39.9688 49.2187 42.0581 47.132 42.0581 44.5546C42.0581 40.9357 42.0581 36.0221 42.0581 32.8854C42.0581 30.5521 45.5581 28.2187 45.5581 28.2187C45.5581 28.2187 42.0581 25.8854 42.0581 23.5521C42.0581 20.8151 42.0581 15.6702 42.0581 11.8834C42.0581 9.30608 39.9688 7.21875 37.3914 7.21875H35.0581" stroke="white" stroke-width="1.5" stroke-linecap="round" stroke-linejoin="round"/>
</g>
</svg>
