<svg width="57" height="57" viewBox="0 0 57 57" fill="none" xmlns="http://www.w3.org/2000/svg">
<g id="community" clip-path="url(#clip0_1_877)">
<path id="Vector" d="M15.8832 43.1899V40.7401C15.8832 33.9753 21.3672 28.4912 28.1321 28.4912C34.897 28.4912 40.3811 33.9753 40.3811 40.7401V43.1899" stroke="white" stroke-width="1.5" stroke-linecap="round" stroke-linejoin="round"/>
<path id="Vector_2" d="M1.18445 43.1907V40.741C1.18445 36.6819 4.47488 33.3916 8.53381 33.3916" stroke="white" stroke-width="1.5" stroke-linecap="round" stroke-linejoin="round"/>
<path id="Vector_3" d="M55.0792 43.1907V40.741C55.0792 36.6819 51.7889 33.3916 47.7299 33.3916" stroke="white" stroke-width="1.5" stroke-linecap="round" stroke-linejoin="round"/>
<path id="Vector_4" d="M28.132 28.4917C32.191 28.4917 35.4813 25.2014 35.4813 21.1423C35.4813 17.0834 32.191 13.793 28.132 13.793C24.0729 13.793 20.7826 17.0834 20.7826 21.1423C20.7826 25.2014 24.0729 28.4917 28.132 28.4917Z" stroke="white" stroke-width="1.5" stroke-linecap="round" stroke-linejoin="round"/>
<path id="Vector_5" d="M8.53324 33.3909C11.2392 33.3909 13.4328 31.1974 13.4328 28.4914C13.4328 25.7853 11.2392 23.5918 8.53324 23.5918C5.82728 23.5918 3.63367 25.7853 3.63367 28.4914C3.63367 31.1974 5.82728 33.3909 8.53324 33.3909Z" stroke="white" stroke-width="1.5" stroke-linecap="round" stroke-linejoin="round"/>
<path id="Vector_6" d="M47.73 33.3909C50.4361 33.3909 52.6296 31.1974 52.6296 28.4914C52.6296 25.7853 50.4361 23.5918 47.73 23.5918C45.024 23.5918 42.8304 25.7853 42.8304 28.4914C42.8304 31.1974 45.024 33.3909 47.73 33.3909Z" stroke="white" stroke-width="1.5" stroke-linecap="round" stroke-linejoin="round"/>
</g>
<defs>
<clipPath id="clip0_1_877">
<rect width="56" height="56" fill="white" transform="translate(0.131836 0.8125)"/>
</clipPath>
</defs>
</svg>
