<svg width="41" height="33" viewBox="0 0 41 33" fill="none" xmlns="http://www.w3.org/2000/svg">
<g id="community 1" clip-path="url(#clip0_1_66)">
<path id="Vector" d="M11.6411 30.2109V28.5443C11.6411 23.9419 15.3721 20.2109 19.9744 20.2109C24.5768 20.2109 28.3078 23.9419 28.3078 28.5443V30.2109" stroke="#383A42" stroke-width="1.5" stroke-linecap="round" stroke-linejoin="round"/>
<path id="Vector_2" d="M1.64111 30.2096V28.543C1.64111 25.7815 3.8797 23.543 6.64111 23.543" stroke="#383A42" stroke-width="1.5" stroke-linecap="round" stroke-linejoin="round"/>
<path id="Vector_3" d="M38.3052 30.2096V28.543C38.3052 25.7815 36.0667 23.543 33.3052 23.543" stroke="#383A42" stroke-width="1.5" stroke-linecap="round" stroke-linejoin="round"/>
<path id="Vector_4" d="M19.9731 20.2109C22.7346 20.2109 24.9731 17.9724 24.9731 15.2109C24.9731 12.4495 22.7346 10.2109 19.9731 10.2109C17.2116 10.2109 14.9731 12.4495 14.9731 15.2109C14.9731 17.9724 17.2116 20.2109 19.9731 20.2109Z" stroke="#383A42" stroke-width="1.5" stroke-linecap="round" stroke-linejoin="round"/>
<path id="Vector_5" d="M6.63851 23.5456C8.47946 23.5456 9.97184 22.0532 9.97184 20.2122C9.97184 18.3712 8.47946 16.8789 6.63851 16.8789C4.79756 16.8789 3.30518 18.3712 3.30518 20.2122C3.30518 22.0532 4.79756 23.5456 6.63851 23.5456Z" stroke="#383A42" stroke-width="1.5" stroke-linecap="round" stroke-linejoin="round"/>
<path id="Vector_6" d="M33.3065 23.5456C35.1475 23.5456 36.6398 22.0532 36.6398 20.2122C36.6398 18.3712 35.1475 16.8789 33.3065 16.8789C31.4655 16.8789 29.9731 18.3712 29.9731 20.2122C29.9731 22.0532 31.4655 23.5456 33.3065 23.5456Z" stroke="#383A42" stroke-width="1.5" stroke-linecap="round" stroke-linejoin="round"/>
</g>
<defs>
<clipPath id="clip0_1_66">
<rect width="40" height="32" fill="white" transform="translate(0.043457 0.210938)"/>
</clipPath>
</defs>
</svg>
