<svg width="567" height="388" viewBox="0 0 567 388" fill="none" xmlns="http://www.w3.org/2000/svg">
<path d="M3.02189 322.414C-18.752 167.689 89.0262 24.6085 243.751 2.83456C398.476 -18.9394 541.557 88.8388 563.331 243.564C585.105 398.289 477.327 541.37 322.602 563.144C167.877 584.918 24.7958 477.139 3.02189 322.414Z" fill="#3958F2"/>
<path d="M151.706 367.46C141.296 348.897 134.399 328.402 131.407 307.144L176.785 300.759C178.88 315.651 183.718 330.008 191.021 343.011C198.324 356.014 207.949 367.408 219.348 376.543C230.747 385.678 243.695 392.374 257.454 396.25C271.213 400.125 285.512 401.104 299.537 399.131C313.561 397.157 327.035 392.27 339.19 384.747C351.345 377.225 361.942 367.215 370.377 355.289C378.812 343.363 384.919 329.755 388.35 315.241C391.78 300.728 392.467 285.593 390.372 270.701L435.701 264.322C438.692 285.58 437.719 307.183 432.837 327.898C427.954 348.613 419.259 368.035 407.246 385.054C395.233 402.073 380.138 416.357 362.824 427.09C345.509 437.822 326.314 444.793 306.334 447.605C286.354 450.417 265.98 449.014 246.376 443.477C226.772 437.94 208.321 428.377 192.078 415.334C175.834 402.291 162.116 386.023 151.706 367.46Z" fill="#F3B71D"/>
<path d="M374.747 159.686L420.077 153.307L426.456 198.635L381.126 205.014L374.747 159.686Z" fill="#F3B71D"/>
<path d="M115.832 196.122L161.162 189.742L167.541 235.07L122.211 241.449L115.832 196.122Z" fill="#F3B71D"/>
</svg>
