<svg width="71" height="42" viewBox="0 0 71 42" fill="none" xmlns="http://www.w3.org/2000/svg">
<path d="M4.11403 25.4444V5C4.11403 2.79086 5.90489 1 8.11403 1H35.314C37.5232 1 39.314 2.79086 39.314 5V25.4444M4.11403 25.4444H39.314M4.11403 25.4444L1.15341 35.9112C0.431289 38.4642 2.34927 41 5.00239 41H38.4256C41.0788 41 42.9968 38.4642 42.2746 35.9112L39.314 25.4444" stroke="#3958F2" stroke-width="1.5"/>
<path d="M19.7139 35H23.7139" stroke="#3958F2" stroke-width="1.5" stroke-linecap="round" stroke-linejoin="round"/>
<path d="M58.9912 34.0264L59.015 34" stroke="#3958F2" stroke-width="1.84375" stroke-linecap="round" stroke-linejoin="round"/>
<path d="M47.9912 38.575V3.425C47.9912 2.638 48.5822 2 49.3112 2H68.6712C69.4003 2 69.9912 2.638 69.9912 3.425V38.575C69.9912 39.3621 69.4003 40 68.6712 40H49.3112C48.5822 40 47.9912 39.3621 47.9912 38.575Z" stroke="#3958F2" stroke-width="1.84375"/>
</svg>
