<svg width="56" height="56" viewBox="0 0 56 56" fill="none" xmlns="http://www.w3.org/2000/svg">
<g id="Featured icon">
<rect x="4" y="4" width="48" height="48" rx="24" fill="#DCE3FD"/>
<rect x="4" y="4" width="48" height="48" rx="24" stroke="#EFF3FF" stroke-width="8"/>
<g id="Group 77">
<path id="Vector" d="M31.3333 18.6666V16.4443M31.3333 18.6666V20.8888M31.3333 18.6666H26.3333M18 25.3332V35.3332C18 36.5606 18.9949 37.5554 20.2222 37.5554H35.7778C37.0051 37.5554 38 36.5606 38 35.3332V25.3332H18Z" stroke="#3958F2" stroke-linecap="round" stroke-linejoin="round"/>
<path id="Vector_2" d="M18 25.3334V20.889C18 19.6617 18.9949 18.6667 20.2222 18.6667H22.4444" stroke="#3958F2" stroke-linecap="round" stroke-linejoin="round"/>
<path id="Vector_3" d="M22.4446 16.4443V20.8888" stroke="#3958F2" stroke-linecap="round" stroke-linejoin="round"/>
<path id="Vector_4" d="M37.9999 25.3334V20.889C37.9999 19.6617 37.005 18.6667 35.7777 18.6667H35.2221" stroke="#3958F2" stroke-linecap="round" stroke-linejoin="round"/>
</g>
</g>
</svg>
