<svg width="97" height="28" viewBox="0 0 97 28" fill="none" xmlns="http://www.w3.org/2000/svg">
<path d="M59.292 27.3737V24.3548H59.9425V26.8252H61.3329V27.3737H59.292Z" fill="white"/>
<path d="M63.5133 24.3548H65.618V24.9033H64.1638V25.5921H65.567V26.1279H64.1638V26.8252H65.652V27.3737H63.5133V24.3548Z" fill="white"/>
<path d="M67.6508 27.3737L68.7393 24.3548H69.5047L70.5932 27.3737H69.9214L69.7003 26.7359H68.5437L68.3226 27.3737H67.6508ZM68.7265 26.1959H69.5174L69.122 25.0351L68.7265 26.1959Z" fill="white"/>
<path d="M73.9675 24.3548C74.5926 24.3548 75.0561 24.6779 75.0561 25.2604C75.0561 25.6431 74.8392 25.894 74.5203 25.9875C74.8349 26.0301 74.9795 26.1874 75.0093 26.5105L75.0816 27.3737H74.4268L74.3715 26.6126C74.3502 26.3575 74.2099 26.2724 73.857 26.2724H73.2957V27.3737H72.6451V24.3548H73.9675ZM73.2957 25.7239H73.8782C74.2056 25.7239 74.3885 25.5793 74.3885 25.3157C74.3885 25.0478 74.2056 24.9033 73.8782 24.9033H73.2957V25.7239Z" fill="white"/>
<path d="M77.2568 24.3548H77.9711L79.1574 26.4212V24.3548H79.808V27.3737H79.0681L77.9073 25.3795V27.3737H77.2568V24.3548Z" fill="white"/>
<path d="M79.8565 0.403546V20.8844H76.3981V0.403546L79.8565 0.403546Z" fill="white"/>
<path d="M62.7212 0.403546V17.426H59.2628V0.403546L62.7212 0.403546Z" fill="white"/>
<path d="M72.9387 20.8844H59.2628V17.426H72.9387V20.8844Z" fill="white"/>
<path d="M0.936523 8.90367H14.6895V12.3816H0.936523V8.90367Z" fill="white"/>
<path d="M0.936523 17.4066H14.6895V20.8845H0.936523V17.4066Z" fill="white"/>
<path d="M0.936523 0.400876H14.6895V3.87878H0.936523V0.400876Z" fill="white"/>
<path d="M51.8597 1.18313C53.1021 0.668496 54.4337 0.40362 55.7785 0.40362V3.88363C54.8908 3.88366 54.0118 4.05852 53.1917 4.39824C52.3715 4.73798 51.6262 5.23595 50.9984 5.86371C50.3707 6.49147 49.8727 7.23673 49.533 8.05694C49.1932 8.87715 49.0184 9.75625 49.0184 10.644C49.0184 11.5318 49.1932 12.4109 49.533 13.2311C49.8727 14.0513 50.3707 14.7966 50.9984 15.4244C51.6262 16.0521 52.3715 16.5501 53.1917 16.8898C54.0118 17.2296 54.8908 17.4044 55.7785 17.4044V20.8845C54.4337 20.8845 53.1021 20.6196 51.8597 20.105C50.6173 19.5904 49.4884 18.8361 48.5374 17.8851C47.5865 16.9342 46.8322 15.8053 46.3176 14.5629C45.803 13.3205 45.5381 11.9889 45.5381 10.6441C45.5381 9.29927 45.803 7.96764 46.3176 6.72521C46.8322 5.48279 47.5865 4.35389 48.5374 3.40298C49.4884 2.45206 50.6173 1.69776 51.8597 1.18313Z" fill="white"/>
<path fill-rule="evenodd" clip-rule="evenodd" d="M86.6961 0.40362L86.7326 0.403685L86.7743 0.403685C88.0925 0.413749 89.3966 0.678471 90.6149 1.18313C91.8574 1.69776 92.9863 2.45206 93.9372 3.40298C94.8881 4.35389 95.6424 5.48279 96.157 6.72521C96.6717 7.96764 96.9365 9.29927 96.9365 10.6441C96.9365 11.9889 96.6716 13.3205 96.157 14.5629C95.6424 15.8053 94.8881 16.9342 93.9372 17.8851C92.9863 18.8361 91.8574 19.5904 90.6149 20.105C89.3966 20.6097 88.0925 20.8741 86.7743 20.8842L86.7236 20.8845L86.6961 20.8845L83.3158 20.8845V0.403685L86.6961 0.40362ZM89.3557 4.39832C88.5355 4.05857 87.6564 3.88371 86.7686 3.88371V17.4045C87.6564 17.4045 88.5355 17.2297 89.3557 16.8899C90.1759 16.5502 90.9212 16.0522 91.549 15.4245C92.1767 14.7967 92.6747 14.0514 93.0144 13.2312C93.3542 12.411 93.529 11.5319 93.529 10.6441C93.529 9.75633 93.3542 8.87724 93.0144 8.05702C92.6747 7.23681 92.1767 6.49155 91.549 5.86379C90.9212 5.23603 90.1759 4.73806 89.3557 4.39832Z" fill="white"/>
<path d="M38.0135 0.390625H41.4911V3.86794H38.0135V0.390625Z" fill="white"/>
<path d="M19.0356 13.6596C18.449 12.1529 18.1471 10.5382 18.1471 8.90739H21.6283C21.6283 10.0498 21.8402 11.1811 22.2519 12.2366C22.6636 13.292 23.2671 14.2511 24.0279 15.0589C24.7886 15.8668 25.6918 16.5076 26.6858 16.9448C27.6798 17.382 28.7451 17.607 29.821 17.607C30.8969 17.607 31.9622 17.382 32.9562 16.9448C33.9502 16.5076 34.8533 15.8668 35.6141 15.0589C36.3749 14.2511 36.9783 13.292 37.39 12.2366C37.8018 11.1811 38.0137 10.0498 38.0137 8.90739H41.4911C41.4911 10.5382 41.1892 12.1529 40.6026 13.6596C40.016 15.1662 39.1563 16.5351 38.0724 17.6883C36.9886 18.8414 35.7019 19.7561 34.2858 20.3802C32.8697 21.0042 31.3519 21.3254 29.8191 21.3254C28.2863 21.3254 26.7685 21.0042 25.3524 20.3802C23.9363 19.7561 22.6496 18.8414 21.5658 17.6883C20.4819 16.5351 19.6222 15.1662 19.0356 13.6596Z" fill="white"/>
<path d="M21.6282 0.390625H18.1507V3.86794H21.6282V0.390625Z" fill="white"/>
</svg>
