<svg width="96" height="28" viewBox="0 0 96 28" fill="none" xmlns="http://www.w3.org/2000/svg">
<g id="EUCLIDLEARN logo">
<path d="M58.3554 27.4914V24.4724H59.006V26.9429H60.3964V27.4914H58.3554Z" fill="#3958F2"/>
<path d="M62.5767 24.4724H64.6815V25.021H63.2273V25.7098H64.6305V26.2455H63.2273V26.9429H64.7155V27.4914H62.5767V24.4724Z" fill="#3958F2"/>
<path d="M66.7143 27.4914L67.8028 24.4724H68.5681L69.6567 27.4914H68.9848L68.7637 26.8536H67.6072L67.3861 27.4914H66.7143ZM67.79 26.3136H68.5809L68.1855 25.1528L67.79 26.3136Z" fill="#3958F2"/>
<path d="M73.031 24.4724C73.656 24.4724 74.1195 24.7956 74.1195 25.3781C74.1195 25.7608 73.9027 26.0117 73.5838 26.1052C73.8984 26.1477 74.043 26.3051 74.0727 26.6282L74.145 27.4914H73.4902L73.4349 26.7303C73.4137 26.4751 73.2734 26.3901 72.9204 26.3901H72.3592V27.4914H71.7086V24.4724H73.031ZM72.3592 25.8416H72.9417C73.2691 25.8416 73.452 25.697 73.452 25.4334C73.452 25.1655 73.2691 25.021 72.9417 25.021H72.3592V25.8416Z" fill="#3958F2"/>
<path d="M76.3202 24.4724H77.0346L78.2209 26.5389V24.4724H78.8715V27.4914H78.1316L76.9708 25.4972V27.4914H76.3202V24.4724Z" fill="#3958F2"/>
<path d="M78.92 0.521221V21.0021H75.4616V0.521221L78.92 0.521221Z" fill="#F7711F"/>
<path d="M61.7847 0.521221V17.5436H58.3263V0.521221L61.7847 0.521221Z" fill="#1B125C"/>
<path d="M72.0022 21.0021H58.3263V17.5436L72.0022 17.5436V21.0021Z" fill="#1B125C"/>
<path d="M0 9.02134H13.7529V12.4992H0V9.02134Z" fill="#3958F2"/>
<path d="M0 17.5242H13.7529V21.0021H0V17.5242Z" fill="#3958F2"/>
<path d="M0 0.518552H13.7529V3.99646H0V0.518552Z" fill="#3958F2"/>
<path d="M50.9232 1.3008C52.1656 0.786172 53.4972 0.521296 54.842 0.521295V4.00131C53.9543 4.00134 53.0753 4.1762 52.2552 4.51591C51.4349 4.85565 50.6897 5.35362 50.0619 5.98138C49.4342 6.60915 48.9362 7.35441 48.5964 8.17462C48.2567 8.99483 48.0818 9.87393 48.0818 10.7617C48.0818 11.6495 48.2567 12.5286 48.5964 13.3488C48.9362 14.169 49.4342 14.9143 50.0619 15.542C50.6897 16.1698 51.4349 16.6678 52.2552 17.0075C53.0753 17.3472 53.9543 17.5221 54.842 17.5221V21.0022C53.4972 21.0022 52.1656 20.7373 50.9232 20.2227C49.6807 19.708 48.5518 18.9537 47.6009 18.0028C46.65 17.0519 45.8957 15.923 45.3811 14.6806C44.8664 13.4382 44.6016 12.1065 44.6016 10.7617C44.6016 9.41695 44.8664 8.08532 45.3811 6.84289C45.8957 5.60046 46.65 4.47156 47.6009 3.52065C48.5518 2.56974 49.6807 1.81543 50.9232 1.3008Z" fill="#F4422D"/>
<path fill-rule="evenodd" clip-rule="evenodd" d="M85.7596 0.521295L85.796 0.52136L85.8377 0.52136C87.1559 0.531424 88.4601 0.796147 89.6784 1.3008C90.9208 1.81543 92.0497 2.56974 93.0006 3.52065C93.9516 4.47156 94.7059 5.60046 95.2205 6.84289C95.7351 8.08532 96 9.41695 96 10.7617C96 12.1065 95.7351 13.4382 95.2205 14.6806C94.7059 15.923 93.9515 17.0519 93.0006 18.0028C92.0497 18.9537 90.9208 19.708 89.6784 20.2227C88.4601 20.7273 87.1559 20.9918 85.8377 21.0019L85.7871 21.0021L85.7596 21.0022L82.3793 21.0021V0.52136L85.7596 0.521295ZM88.4192 4.51599C87.599 4.17625 86.7199 4.00139 85.8321 4.00139V17.5222C86.7199 17.5222 87.599 17.3473 88.4192 17.0076C89.2394 16.6679 89.9847 16.1699 90.6124 15.5421C91.2402 14.9144 91.7381 14.1691 92.0779 13.3489C92.4176 12.5287 92.5925 11.6496 92.5925 10.7618C92.5925 9.87401 92.4176 8.99491 92.0779 8.1747C91.7381 7.35449 91.2402 6.60923 90.6124 5.98147C89.9847 5.3537 89.2394 4.85574 88.4192 4.51599Z" fill="#CC1537"/>
<path d="M37.077 0.508301H40.5546V3.98561H37.077V0.508301Z" fill="#F3B71D"/>
<path d="M18.0991 13.7773C17.5125 12.2706 17.2106 10.6558 17.2106 9.02507H20.6918C20.6918 10.1675 20.9037 11.2988 21.3154 12.3542C21.7271 13.4097 22.3306 14.3688 23.0913 15.1766C23.8521 15.9844 24.7553 16.6252 25.7492 17.0624C26.7432 17.4996 27.8086 17.7247 28.8845 17.7247C29.9603 17.7247 31.0257 17.4996 32.0197 17.0624C33.0137 16.6252 33.9168 15.9844 34.6776 15.1766C35.4383 14.3688 36.0418 13.4097 36.4535 12.3542C36.8652 11.2988 37.0771 10.1675 37.0772 9.02507H40.5545C40.5545 10.6558 40.2526 12.2706 39.6661 13.7772C39.0795 15.2839 38.2197 16.6528 37.1359 17.806C36.0521 18.9591 34.7654 19.8738 33.3492 20.4978C31.9331 21.1219 30.4154 21.4431 28.8826 21.4431C27.3498 21.4431 25.832 21.1219 24.4159 20.4978C22.9998 19.8738 21.7131 18.9591 20.6292 17.806C19.5454 16.6528 18.6857 15.2839 18.0991 13.7773Z" fill="#F3B71D"/>
<path d="M20.6917 0.508301H17.2142V3.98561H20.6917V0.508301Z" fill="#F3B71D"/>
</g>
</svg>
