<svg width="57" height="57" viewBox="0 0 57 57" fill="none" xmlns="http://www.w3.org/2000/svg">
<g id="medal-solid 2">
<path id="Vector" fill-rule="evenodd" clip-rule="evenodd" d="M35.4357 3.8632C34.5432 3.49199 33.5189 3.91446 33.1476 4.80682L30.721 10.6402C30.3497 11.5325 30.7723 12.5568 31.6646 12.9281C32.5571 13.2993 33.5814 12.8768 33.9526 11.9845L36.3793 6.15112C36.7505 5.25876 36.328 4.23443 35.4357 3.8632ZM43.9636 3.87804C43.0795 3.48772 42.0463 3.88805 41.6559 4.77222L33.607 23.0041C33.1486 22.8727 32.6817 22.7614 32.2073 22.6715L23.4446 4.71162C23.0208 3.84299 21.9731 3.4824 21.1044 3.90618C20.2358 4.32998 19.8752 5.37772 20.299 6.24632L28.1954 22.4308C26.667 22.5325 25.1984 22.8523 23.8201 23.3592L14.4887 4.69636C14.0565 3.83188 13.0053 3.48149 12.1409 3.91374C11.2764 4.34596 10.926 5.39713 11.3582 6.26161L20.6907 24.9266C16.3668 27.7343 13.5068 32.6061 13.5068 38.1457C13.5068 46.8441 20.5583 53.8957 29.2568 53.8957C37.9552 53.8957 45.0068 46.8441 45.0068 38.1457C45.0068 32.1975 41.7096 27.0196 36.8432 24.3398L44.8577 6.18573C45.2481 5.30156 44.8477 4.26838 43.9636 3.87804Z" fill="url(#paint0_linear_1_1509)"/>
</g>
<defs>
<linearGradient id="paint0_linear_1_1509" x1="20.4204" y1="25.6305" x2="32.5995" y2="53.8957" gradientUnits="userSpaceOnUse">
<stop stop-color="#FADAA7"/>
<stop offset="1" stop-color="#80530B"/>
</linearGradient>
</defs>
</svg>
