<svg width="57" height="57" viewBox="0 0 57 57" fill="none" xmlns="http://www.w3.org/2000/svg">
<g id="medal-solid 1">
<path id="Vector" fill-rule="evenodd" clip-rule="evenodd" d="M35.1369 3.86417C34.2444 3.49296 33.22 3.91544 32.8488 4.8078L30.4221 10.6411C30.0509 11.5335 30.4735 12.5578 31.3657 12.9291C32.2582 13.3003 33.2826 12.8778 33.6538 11.9854L36.0805 6.1521C36.4517 5.25974 36.0291 4.23541 35.1369 3.86417ZM43.6647 3.87901C42.7806 3.48869 41.7474 3.88902 41.3571 4.77319L33.3082 23.0051C32.8497 22.8736 32.3828 22.7624 31.9085 22.6725L23.1458 4.7126C22.722 3.84397 21.6742 3.48337 20.8056 3.90715C19.937 4.33096 19.5764 5.37869 20.0002 6.2473L27.8965 22.4318C26.3682 22.5335 24.8996 22.8532 23.5213 23.3602L14.1899 4.69734C13.7577 3.83286 12.7065 3.48246 11.842 3.91471C10.9776 4.34694 10.6272 5.39811 11.0594 6.26258L20.3919 24.9276C16.0679 27.7353 13.208 32.6071 13.208 38.1466C13.208 46.8451 20.2595 53.8966 28.958 53.8966C37.6564 53.8966 44.708 46.8451 44.708 38.1466C44.708 32.1985 41.4107 27.0206 36.5443 24.3408L44.5589 6.1867C44.9492 5.30253 44.5488 4.26936 43.6647 3.87901Z" fill="url(#paint0_linear_1_1523)"/>
</g>
<defs>
<linearGradient id="paint0_linear_1_1523" x1="20.777" y1="26.1851" x2="32.6792" y2="52.4807" gradientUnits="userSpaceOnUse">
<stop stop-color="#FDF4E0"/>
<stop offset="1" stop-color="#CBAC0F"/>
</linearGradient>
</defs>
</svg>
