<svg width="295" height="184" viewBox="0 0 295 184" fill="none" xmlns="http://www.w3.org/2000/svg">
<path d="M81.6699 35.4174L100.839 83.0302H195.755L215.233 35.4174C222.653 34.4899 228.218 28.3065 228.218 20.8863C228.218 11.3019 219.252 3.88171 209.359 6.66427C205.03 7.90097 201.32 11.3019 199.774 15.6303C197.61 21.8138 199.465 27.9973 204.103 31.7074C198.538 39.4367 189.881 44.0743 180.606 44.0743C169.475 44.0743 159.582 37.5817 154.635 27.6881C159.582 25.2147 162.673 20.2679 162.673 14.7028C162.673 5.42758 153.707 -1.9926 143.814 0.480795C138.558 2.02666 134.848 6.04593 133.611 11.3019C132.065 18.7221 136.085 25.5239 142.268 27.9973C137.321 37.5817 127.428 43.7651 116.607 43.7651C107.022 43.7651 98.3653 39.1275 92.8002 31.089C95.8919 28.3064 97.747 24.5964 97.747 20.2679C97.747 10.9927 89.3993 3.88171 79.8149 6.04592C74.2497 7.28262 69.9213 11.6111 68.6846 16.867C66.5204 26.7606 73.013 34.7991 81.6699 35.4174Z" fill="#F3B71D"/>
<path d="M100.53 110.857C100.53 112.712 102.076 114.258 103.931 114.258H191.736C193.591 114.258 195.137 112.712 195.137 110.857V95.3984H100.53V110.857Z" fill="#F3B71D"/>
<path d="M124.027 166.815C120.935 166.197 119.698 165.579 116.607 164.96C117.225 161.559 117.534 155.994 115.061 150.429C112.278 143.936 107.022 139.299 104.24 136.825C103.312 135.898 101.766 136.207 101.148 137.135C99.6021 140.226 97.1287 146.101 99.2929 152.902C100.22 155.685 102.075 158.158 103.931 160.323C97.747 157.54 94.9645 155.994 89.0902 152.902C90.636 149.502 92.1819 144.246 91.2544 138.371C90.0177 131.26 86.3076 125.386 84.4525 122.294C83.8342 121.058 82.2883 121.058 81.3608 121.985C79.1966 124.458 75.1773 129.714 75.7957 136.825C76.1049 139.608 77.0324 142.391 78.2691 145.173C73.0131 141.154 70.5397 138.99 65.9021 134.661C68.0663 131.879 70.8489 126.932 71.1581 121.058C71.7764 114.256 69.303 107.763 68.0663 104.362C67.7572 103.125 66.2113 102.507 65.2838 103.435C62.5012 105.29 57.5544 109.618 56.3177 116.729C56.0085 119.512 56.3177 122.603 56.9361 125.386C52.9168 120.439 51.0618 117.657 47.3517 112.401C50.1342 110.236 53.8443 106.217 55.6994 100.652C57.8636 94.1594 56.9361 87.3576 56.6269 83.6475C56.3177 82.4108 55.081 81.4832 54.1535 81.7924C51.0618 83.0291 45.1875 86.1209 42.4049 92.6135C41.4774 95.3961 40.859 98.1786 40.859 101.27C38.0765 95.3961 36.8398 92.6135 34.6755 86.43C37.7673 84.8842 42.4049 81.7924 45.4966 76.8456C48.8975 70.9713 49.8251 64.1695 50.4434 60.4594C50.4434 59.2227 49.5159 57.986 48.2792 58.2952C44.8783 58.9135 38.6948 60.4594 34.3664 66.0245C32.8205 68.4979 31.5838 71.2805 30.9654 74.0631C29.4196 67.5704 29.1104 64.4787 28.4921 57.986C31.893 57.3677 37.1489 55.2035 41.1682 50.875C46.115 45.9282 48.5884 39.1264 49.8251 35.4163C50.4434 34.1796 49.5159 32.6338 48.2792 32.6338C44.8783 32.3246 38.3856 32.3246 32.8205 37.2714C30.6563 39.1264 28.8012 41.909 27.5645 44.3824C27.5645 36.9622 27.8737 33.2521 29.1104 26.1411C29.4196 23.6677 28.4921 21.1943 26.637 20.8852C24.782 20.576 22.9269 22.431 22.3086 25.2136C21.0719 32.9429 20.7627 36.9622 20.4535 44.6916C19.2168 41.909 17.9801 38.8172 16.1251 36.3439C11.4875 30.1604 5.61318 27.687 2.21227 27.0686C0.975573 26.7595 -0.261123 28.6145 0.0480511 30.7787C0.357225 36.3438 2.21227 46.5466 7.46823 52.7301C12.1058 57.986 17.671 58.9135 21.0719 58.9135C21.6902 66.0245 22.3086 69.4255 23.8544 75.9181C21.9994 73.4447 20.1444 70.9713 17.671 69.1163C11.7967 64.1695 5.30401 63.5512 1.9031 63.8603C0.666399 63.8603 0.0480512 66.0246 0.666399 67.8796C2.21227 73.1356 6.5407 82.4108 13.0334 86.7392C18.5985 90.4493 24.1636 90.1401 27.8737 89.5218C30.0379 96.0144 31.2746 99.1062 34.3664 105.29C32.2021 103.435 29.4196 101.58 26.637 100.034C19.8352 96.6328 13.3425 97.5603 10.2508 98.4878C9.0141 98.797 8.70492 100.961 9.94162 102.507C12.7242 107.145 18.9077 114.874 26.0187 117.657C32.2021 120.13 37.7673 118.275 40.859 116.729C44.5691 122.603 46.4241 125.386 50.7526 130.642C47.97 129.405 45.1875 128.169 42.0957 127.55C34.6755 126.004 28.8012 128.169 25.7095 130.024C24.782 130.642 24.782 132.806 26.3278 134.043C30.0379 137.753 37.7673 144.246 45.4966 145.173C52.2985 146.101 56.9361 143.318 59.7186 140.845C64.6654 145.791 67.1388 147.956 72.7039 151.975C69.9214 151.357 66.5205 150.738 63.4287 150.738C56.0085 150.738 50.4434 154.448 47.97 156.922C47.0425 157.849 47.6608 159.704 49.5159 160.632C54.1535 163.414 63.1195 167.743 70.8489 167.124C77.6507 166.506 81.67 162.487 83.8342 159.704C89.7085 163.414 92.8002 164.96 99.2929 167.743C96.2012 167.743 93.1094 168.052 90.0177 168.67C82.5975 170.525 78.2691 175.163 76.414 177.946C75.7957 178.873 77.0324 180.728 78.8874 181.346C84.1434 183.201 94.0369 185.366 101.766 182.892C108.259 180.728 111.351 176.09 112.897 172.69C115.988 173.617 117.534 173.926 120.626 174.854C123.408 175.472 125.882 174.545 126.191 172.69C128.355 169.289 126.5 167.434 124.027 166.815Z" fill="#F3B71D"/>
<path d="M293.145 62.3134C289.744 62.0043 283.251 62.9318 277.377 67.5694C274.904 69.4245 273.049 71.8979 271.194 74.3712C272.739 67.5694 273.358 64.1685 273.976 57.3667C277.686 57.3667 283.251 56.4392 287.58 51.1832C292.836 45.3089 294.691 34.797 295 29.2318C295 27.0676 294.072 25.5218 292.836 25.5218C289.435 26.1401 283.561 28.3043 278.923 34.797C277.068 37.2704 275.522 40.3621 274.595 43.1447C274.595 35.4153 274.285 31.3961 272.739 23.6667C272.43 20.8841 270.266 19.0291 268.411 19.3383C266.556 19.6475 265.628 22.1208 265.938 24.5942C267.174 32.0144 267.484 35.7245 267.484 42.8355C266.247 40.0529 264.392 37.5795 262.228 35.7245C256.972 30.7777 250.17 30.7777 246.769 31.0869C245.532 31.0869 244.914 32.6328 245.223 33.8695C246.46 37.5795 248.933 44.3814 253.88 49.3282C257.899 53.6566 263.155 55.5116 266.556 56.4392C265.938 62.9318 265.319 66.3327 264.083 72.5162C263.464 69.7336 262.537 66.9511 260.682 64.4777C256.662 58.6034 250.17 57.0575 246.769 56.7483C245.532 56.4391 244.605 57.6758 244.605 58.9125C244.914 62.6226 245.841 69.4245 249.551 75.2988C252.643 80.2455 257.281 83.3373 260.373 84.8832C258.208 91.0666 256.972 94.1584 254.189 99.7235C254.189 96.9409 253.88 93.8492 252.643 91.0666C249.861 84.574 243.986 81.4822 240.895 80.2456C239.658 79.9364 238.421 80.5547 238.421 82.1006C238.112 85.8107 237.184 92.6125 239.349 99.1052C241.204 104.67 244.914 108.69 247.696 110.854C244.295 116.419 242.44 118.892 238.112 123.839C238.73 121.057 239.04 117.965 238.73 115.182C237.803 108.071 232.547 104.052 229.764 101.888C228.837 101.269 227.291 101.579 226.982 102.815C225.745 106.216 223.581 112.709 223.89 119.511C224.199 125.385 226.982 130.023 229.146 133.114C224.508 137.752 222.035 139.916 216.779 143.626C218.016 141.153 219.252 138.37 219.252 135.279C219.871 128.168 215.851 122.912 213.687 120.438C212.76 119.511 211.214 119.82 210.595 120.747C208.431 123.839 204.721 129.713 203.794 136.515C202.866 142.39 204.412 147.645 205.958 151.046C200.393 154.447 197.301 155.993 191.118 158.467C192.973 156.302 194.828 153.829 195.755 151.046C198.229 144.245 195.446 138.37 193.9 135.279C193.282 134.042 191.736 134.042 190.808 134.969C188.026 137.443 182.77 142.39 179.987 148.573C177.514 154.138 177.823 159.703 178.441 163.104C175.659 164.032 174.113 164.341 171.021 164.959C168.548 165.578 166.693 167.433 167.002 169.288C167.311 171.143 169.785 172.07 172.567 171.452C175.659 170.834 177.205 170.215 180.296 169.288C181.842 172.689 184.934 177.326 191.427 179.49C199.156 181.964 209.05 179.8 214.306 177.945C216.161 177.326 217.397 175.471 216.779 174.544C214.924 171.761 210.596 166.814 203.175 165.268C200.084 164.65 196.992 164.341 193.9 164.341C200.393 161.558 203.485 160.012 209.359 156.302C211.523 159.085 215.542 163.104 222.344 163.723C230.073 164.341 239.349 160.012 243.677 157.23C245.223 156.302 246.151 154.138 245.223 153.52C242.75 151.356 237.494 147.645 229.764 147.336C226.673 147.336 223.581 147.955 220.489 148.573C226.054 144.554 228.528 142.08 233.474 137.443C236.257 139.607 241.204 142.699 247.696 141.771C255.426 140.844 263.155 134.351 266.865 130.641C268.102 129.404 268.411 127.24 267.484 126.622C264.701 125.076 258.517 122.602 251.097 124.148C248.006 124.767 245.223 126.003 242.44 127.24C246.769 121.984 248.624 119.201 252.334 113.327C255.426 114.873 260.991 116.419 267.174 114.255C274.595 111.472 280.778 103.434 283.251 99.1052C284.179 97.5593 284.179 95.3951 282.942 95.0859C279.85 94.1584 273.358 93.2309 266.556 96.6318C263.773 97.8685 261.3 99.7235 258.827 101.888C261.918 95.7042 263.155 92.6125 265.319 86.1199C268.72 86.7382 274.595 87.3566 280.16 83.3373C286.652 79.0089 290.672 69.7336 292.527 64.4777C295 64.4777 294.382 62.3134 293.145 62.3134Z" fill="#F3B71D"/>
</svg>
