<svg width="57" height="57" viewBox="0 0 57 57" fill="none" xmlns="http://www.w3.org/2000/svg">
<g id="medal-solid 1">
<path id="Vector" fill-rule="evenodd" clip-rule="evenodd" d="M35.0709 3.86417C34.1784 3.49296 33.1541 3.91544 32.7829 4.8078L30.3562 10.6411C29.985 11.5335 30.4075 12.5578 31.2998 12.9291C32.1923 13.3003 33.2166 12.8778 33.5879 11.9854L36.0145 6.1521C36.3858 5.25974 35.9632 4.23541 35.0709 3.86417ZM43.5988 3.87901C42.7147 3.48869 41.6815 3.88902 41.2911 4.77319L33.2423 23.0051C32.7838 22.8736 32.3169 22.7624 31.8425 22.6725L23.0798 4.7126C22.656 3.84397 21.6083 3.48337 20.7397 3.90715C19.8711 4.33096 19.5105 5.37869 19.9343 6.2473L27.8306 22.4318C26.3023 22.5335 24.8337 22.8532 23.4554 23.3602L14.124 4.69734C13.6917 3.83286 12.6406 3.48246 11.7761 3.91471C10.9117 4.34694 10.5613 5.39811 10.9935 6.26258L20.326 24.9276C16.002 27.7353 13.1421 32.6071 13.1421 38.1466C13.1421 46.8451 20.1936 53.8966 28.892 53.8966C37.5905 53.8966 44.642 46.8451 44.642 38.1466C44.642 32.1985 41.3448 27.0206 36.4784 24.3408L44.4929 6.1867C44.8833 5.30253 44.4829 4.26936 43.5988 3.87901Z" fill="url(#paint0_linear_1_1530)"/>
</g>
<defs>
<linearGradient id="paint0_linear_1_1530" x1="20.6071" y1="24.8011" x2="33.3398" y2="53.8966" gradientUnits="userSpaceOnUse">
<stop stop-color="#EEEEEE"/>
<stop offset="1" stop-color="#878787"/>
</linearGradient>
</defs>
</svg>
