<svg width="57" height="57" viewBox="0 0 57 57" fill="none" xmlns="http://www.w3.org/2000/svg">
<g id="medal-solid 2">
<path id="Vector" fill-rule="evenodd" clip-rule="evenodd" d="M35.3698 3.8632C34.4773 3.49199 33.4529 3.91446 33.0817 4.80682L30.655 10.6402C30.2838 11.5325 30.7064 12.5568 31.5986 12.9281C32.4911 13.2993 33.5155 12.8768 33.8867 11.9845L36.3134 6.15112C36.6846 5.25876 36.262 4.23443 35.3698 3.8632ZM43.8976 3.87804C43.0135 3.48772 41.9803 3.88805 41.59 4.77222L33.5411 23.0041C33.0826 22.8727 32.6157 22.7614 32.1414 22.6715L23.3787 4.71162C22.9549 3.84299 21.9072 3.4824 21.0385 3.90618C20.1699 4.32998 19.8093 5.37772 20.2331 6.24632L28.1294 22.4308C26.6011 22.5325 25.1325 22.8523 23.7542 23.3592L14.4228 4.69636C13.9906 3.83188 12.9394 3.48149 12.0749 3.91374C11.2105 4.34596 10.8601 5.39713 11.2923 6.26161L20.6248 24.9266C16.3009 27.7343 13.4409 32.6061 13.4409 38.1457C13.4409 46.8441 20.4924 53.8957 29.1909 53.8957C37.8893 53.8957 44.9409 46.8441 44.9409 38.1457C44.9409 32.1975 41.6436 27.0196 36.7772 24.3398L44.7918 6.18573C45.1821 5.30156 44.7817 4.26838 43.8976 3.87804Z" fill="url(#paint0_linear_1_1516)"/>
</g>
<defs>
<linearGradient id="paint0_linear_1_1516" x1="20.0937" y1="25.2291" x2="33.0348" y2="53.8957" gradientUnits="userSpaceOnUse">
<stop stop-color="#B5B5B5"/>
<stop offset="1" stop-color="#525252"/>
</linearGradient>
</defs>
</svg>
